<svg width="1600" height="900" viewBox="0 0 1600 900" xmlns="http://www.w3.org/2000/svg">
  <defs>
    <linearGradient id="bg" x1="0" x2="1">
      <stop offset="0%" stop-color="#010d1a"/>
      <stop offset="100%" stop-color="#020812"/>
    </linearGradient>
    <linearGradient id="cyanGlow" x1="0" x2="1">
      <stop offset="0%" stop-color="#63f4ff"/>
      <stop offset="100%" stop-color="#8af6d0"/>
    </linearGradient>
    <filter id="glow" x="-50%" y="-50%" width="200%" height="200%">
      <feGaussianBlur stdDeviation="2.5" result="blur"/>
      <feMerge>
        <feMergeNode in="blur"/>
        <feMergeNode in="SourceGraphic"/>
      </feMerge>
    </filter>
    <filter id="softGlow" x="-50%" y="-50%" width="200%" height="200%">
      <feGaussianBlur stdDeviation="4" result="blur"/>
      <feMerge>
        <feMergeNode in="blur"/>
        <feMergeNode in="SourceGraphic"/>
      </feMerge>
    </filter>
  </defs>

  <rect width="1600" height="900" fill="url(#bg)"/>

  <g font-family="'SFMono-Regular', Consolas, 'Liberation Mono', monospace" fill="none">
    <text x="70" y="100" font-size="34" fill="#84f7ff" font-weight="700" letter-spacing="2" style="filter:url(#glow)">PIPELINE_WORKFLOW_V1.0</text>
    <text x="70" y="145" font-size="22" fill="#8fe8ff" letter-spacing="3" opacity="0.9">VISIÓN_GENERAL // PIPELINE_ESTADÍSTICO</text>

    <g stroke="url(#cyanGlow)" stroke-width="1.4" opacity="0.9" filter="url(#softGlow)">
      <path d="M680 250 C600 250, 540 285, 520 335 C500 390, 505 460, 530 530 C560 610, 610 660, 675 715 C725 755, 790 783, 859 760 C913 742, 954 693, 975 640 C998 580, 1008 487, 973 420 C941 360, 891 325, 842 318 C810 314, 785 325, 758 330 C756 319, 748 295, 731 283 C711 269, 694 259, 680 250 Z" fill="none"/>

      <path d="M660 320 C705 300, 770 300, 845 319 C905 334, 958 376, 966 432 C974 493, 953 556, 905 604 C851 658, 767 698, 691 674 C628 654, 590 616, 575 558 C560 501, 568 436, 604 382 C617 366, 630 349, 660 320 Z" fill="none" opacity="0.85"/>

      <g opacity="0.65">
        <path d="M620 420 C650 390, 682 372, 726 367"/>
        <path d="M620 448 C660 425, 707 416, 754 415"/>
        <path d="M620 476 C667 455, 721 453, 779 454"/>
        <path d="M625 504 C675 488, 723 491, 795 500"/>
        <path d="M635 533 C685 520, 744 528, 814 548"/>
        <path d="M638 565 C697 562, 756 575, 824 605"/>
        <path d="M648 603 C706 610, 765 632, 822 670"/>

        <path d="M853 360 C897 392, 927 422, 936 468"/>
        <path d="M877 381 C912 410, 941 444, 951 490"/>
        <path d="M900 404 C928 440, 948 489, 952 534"/>
        <path d="M911 430 C938 470, 951 522, 945 576"/>
      </g>

      <g opacity="0.8">
        <path d="M710 520 C786 540, 804 573, 815 607"/>
        <path d="M735 510 C796 524, 824 560, 838 604"/>
        <path d="M760 505 C810 514, 845 548, 860 594"/>
        <path d="M690 580 C743 610, 810 642, 852 700"/>
        <path d="M784 565 C818 588, 860 624, 897 675"/>
      </g>

      <g fill="none" opacity="0.7">
        <path d="M587 365 C665 350, 711 320, 733 285"/>
        <path d="M540 394 C628 390, 702 370, 759 334"/>
        <path d="M501 453 C600 450, 684 435, 758 392"/>
      </g>

      <g>
        <circle cx="680" cy="360" r="12" fill="#d8fffd" opacity="0.8"/>
        <circle cx="706" cy="468" r="12" fill="#d8fffd" opacity="0.8"/>
        <circle cx="742" cy="552" r="12" fill="#d8fffd" opacity="0.8"/>
        <circle cx="876" cy="350" r="12" fill="#d8fffd" opacity="0.8"/>
        <circle cx="915" cy="516" r="12" fill="#d8fffd" opacity="0.8"/>
      </g>
    </g>

    <g font-family="'SFMono-Regular', Consolas, 'Liberation Mono', monospace">
      <rect x="92" y="555" width="305" height="175" rx="12" fill="rgba(12,31,46,0.55)" stroke="#7ef7ff" stroke-width="2"/>
      <text x="125" y="595" font-size="18" fill="#7ef7ff" letter-spacing="2">CLASS_IMBALANCE_WARNING</text>
      <rect x="121" y="612" width="26" height="82" fill="#79f4bd" opacity="0.9"/>
      <rect x="149" y="631" width="26" height="63" fill="#7ae7f5" opacity="0.9"/>
      <rect x="177" y="645" width="26" height="49" fill="#97f491" opacity="0.9"/>
      <rect x="205" y="654" width="26" height="40" fill="#86f0cb" opacity="0.9"/>
      <rect x="233" y="665" width="26" height="29" fill="#7ef4d5" opacity="0.9"/>
      <rect x="261" y="672" width="26" height="22" fill="#7feceb" opacity="0.9"/>
      <text x="124" y="725" font-size="20" fill="#d9fffd">95.3% (Pain_Absent)</text>
      <text x="124" y="760" font-size="18" fill="#ff6b70">4.7% (Pain_Present)</text>
      <rect x="126" y="770" width="140" height="8" fill="#ff5d6e" opacity="0.9"/>
      <rect x="126" y="770" width="236" height="8" fill="#7cf0c7" opacity="0.75"/>
    </g>

    <g font-family="'SFMono-Regular', Consolas, 'Liberation Mono', monospace">
      <rect x="1190" y="505" width="315" height="180" rx="12" fill="rgba(12,31,46,0.55)" stroke="#7ef7ff" stroke-width="2"/>
      <text x="1224" y="545" font-size="17" fill="#7ef7ff" letter-spacing="2">MÉTRICAS: REGRESIÓN_LOGÍSTICA_ROBUSTA</text>
      <text x="1230" y="572" font-size="16" fill="#d7fdf9">CONTROLS: Sex, Age, Basal_Bias</text>
      <text x="1230" y="596" font-size="16" fill="#d7fdf9">VALIDATION: Cluster_Sandwich_Estimator</text>
      <text x="1230" y="620" font-size="16" fill="#d7fdf9">AUC &lt; 0.70</text>
    </g>

    <g font-family="'SFMono-Regular', Consolas, 'Liberation Mono', monospace">
      <rect x="1120" y="700" width="330" height="145" rx="10" fill="rgba(12,31,46,0.4)" stroke="#7ef7ff" stroke-width="2"/>
      <circle cx="1198" cy="770" r="26" fill="none" stroke="#7ef7ff"/>
      <circle cx="1198" cy="770" r="10" fill="#7ef7ff"/>
      <text x="1236" y="765" font-size="19" fill="#7ef7ff" letter-spacing="2">ANALYZING...</text>
      <text x="1218" y="790" font-size="16" fill="#d9fff9">v-datos</text>
    </g>

    <g font-family="'SFMono-Regular', Consolas, 'Liberation Mono', monospace" font-size="18" fill="#7ef7ff" opacity="0.9">
      <text x="52" y="835">Estudio_termo... </text>
      <text x="1160" y="850">BIOMARCADOR_DIAGNÓSTICO</text>
    </g>

    <g transform="translate(400,600)" font-family="'SFMono-Regular', Consolas, 'Liberation Mono', monospace">
      <rect x="0" y="0" width="200" height="120" rx="18" fill="rgba(12,31,46,0.5)" stroke="#7ef7ff" stroke-width="2"/>
      <text x="28" y="46" font-size="22" fill="#7ef7ff">INGESTA_DATOS_EXCEL</text>
      <rect x="50" y="60" width="100" height="28" fill="none" stroke="#7ef7ff"/>
      <path d="M76 76 H124" stroke="#7ef7ff"/>
      <path d="M89 65 V87" stroke="#7ef7ff"/>
      <path d="M141 52 L180 52" stroke="#7ef7ff"/>
      <path d="M180 52 L170 46" stroke="#7ef7ff"/>
      <path d="M180 52 L170 58" stroke="#7ef7ff"/>
    </g>

    <g transform="translate(680,600)" font-family="'SFMono-Regular', Consolas, 'Liberation Mono', monospace">
      <rect x="0" y="0" width="210" height="120" rx="18" fill="rgba(12,31,46,0.5)" stroke="#7ef7ff" stroke-width="2"/>
      <text x="18" y="45" font-size="18" fill="#7ef7ff">MAPEO_Y_MODELADO</text>
      <rect x="50" y="62" width="110" height="30" fill="none" stroke="#7ef7ff"/>
      <path d="M62 77 Q79 65 96 77 T130 77" stroke="#7ef7ff"/>
      <path d="M120 81 Q143 63 158 81" stroke="#7ef7ff"/>
      <path d="M9 66 H30 L50 80 H170" stroke="#7ef7ff" opacity="0.7"/>
    </g>

    <g transform="translate(980,605)" font-family="'SFMono-Regular', Consolas, 'Liberation Mono', monospace">
      <rect x="0" y="0" width="220" height="120" rx="18" fill="rgba(12,31,46,0.5)" stroke="#7ef7ff" stroke-width="2"/>
      <text x="48" y="48" font-size="20" fill="#7ef7ff">PDF</text>
      <path d="M82 25 H150 V95 H82 Z" fill="none" stroke="#7ef7ff"/>
      <path d="M120 25 V95" stroke="#7ef7ff"/>
      <path d="M82 55 H150" stroke="#7ef7ff"/>
      <path d="M82 68 H140" stroke="#7ef7ff"/>
      <path d="M82 81 H126" stroke="#7ef7ff"/>
    </g>
  </g>
</svg>
